REM MD5 591f5e01a655f29874577e03b3a8d883
FILE "Formula Karts - Special Edition (Europe) (Demo).bin" BINARY
  TRACK 01 MODE2/2352
    INDEX 01 00:00:00
  TRACK 02 AUDIO
    INDEX 00 02:17:15
    INDEX 01 02:19:15
  TRACK 03 AUDIO
    INDEX 00 07:22:04
    INDEX 01 07:24:04
REM LEADOUT 10:56:57
